<mxfile host="app.diagrams.net" modified="2023-10-10T21:13:45.791Z" agent="Mozilla/5.0 (Macintosh; Intel Mac OS X 10_15_6) AppleWebKit/605.1.15 (KHTML, like Gecko) Version/15.2 Safari/605.1.15" version="22.0.4" etag="-Av9ERnO0kAUw1-gxLbn" type="github">
  <diagram name="Page-1" id="PqQEkEyRQQpxrXVHs7js">
    <mxGraphModel>
      <root>
        <mxCell id="0" />
        <mxCell id="1" parent="0" />
      </root>
    </mxGraphModel>
  </diagram>
</mxfile>
